# xmcd
#
# Track frame offsets:
# 150
# 20216
# 33072
# 54072
# 76375
# 91538
# 107879
# 127817
# 147215
# 165940
# 190625
# 206086
# 225263
# 243048
# 256898
# 274401
#
# Disc length: 4014 seconds
#
#
# Revision: 2
# Processed by: cddbd v1.5.2PL0 Copyright (c) Steve Scherf et al.
# Submitted via: FreeRIP 2.944 
#
DISCID=bb0fac10
DTITLE=Τα Blues του Party A - Τα Blues του Party
DYEAR=2004
DGENRE=Blues
TTITLE0=Total Eclipse of the Heart
TTITLE1=Peter Sledge - When a Man Loves a woman
TTITLE2=Leonard Cohen - Dance Me to the End of TIme
TTITLE3=Sam Brown - Stop!
TTITLE4=Harry Nilson - Whithout You
TTITLE5=The Righteous Brothers - Unchained Melody
TTITLE6=Whitney Houston - I Will always Love you
TTITLE7=Chris De Burgh - The Lady in Red
TTITLE8=Lionel Richie - Hello
TTITLE9=Roxette - Listen to Your Heart
TTITLE10=Phil Collins - Aginst all Odds
TTITLE11=Berlin - Take my Breath Away
TTITLE12=Bangles - Eternal Flame
TTITLE13=Johnny Logan - Hold me Now
TTITLE14=Kenny Rogers - Lady
TTITLE15=Jennifer Rush - Power of love
EXTD=submit by Theodore Mavrogiorgis
EXTT0=
EXTT1=
EXTT2=
EXTT3=
EXTT4=
EXTT5=
EXTT6=
EXTT7=
EXTT8=
EXTT9=
EXTT10=
EXTT11=
EXTT12=
EXTT13=
EXTT14=
EXTT15=
PLAYORDER=
